<svg width="25" height="25" viewBox="0 0 25 25" fill="none" xmlns="http://www.w3.org/2000/svg">
<path d="M15.6666 12.5C15.6666 13.1938 15.6291 13.8625 15.5635 14.5H9.77288C9.70413 13.8625 9.66975 13.1938 9.66975 12.5C9.66975 11.8063 9.70725 11.1375 9.77288 10.5H15.5635C15.6323 11.1375 15.6666 11.8063 15.6666 12.5ZM16.5666 10.5H20.4135C20.5791 11.1406 20.6666 11.8094 20.6666 12.5C20.6666 13.1906 20.5791 13.8594 20.4135 14.5H16.5666C16.6323 13.8562 16.6666 13.1875 16.6666 12.5C16.6666 11.8125 16.6323 11.1438 16.5666 10.5ZM20.0854 9.5H16.4385C16.126 7.50312 15.5073 5.83125 14.7104 4.7625C17.1573 5.40938 19.1479 7.18438 20.0823 9.5H20.0854ZM15.426 9.5H9.90725C10.0979 8.3625 10.3916 7.35625 10.751 6.54063C11.0791 5.80313 11.4448 5.26875 11.7979 4.93125C12.1479 4.6 12.4385 4.5 12.6666 4.5C12.8948 4.5 13.1854 4.6 13.5354 4.93125C13.8885 5.26875 14.2541 5.80313 14.5823 6.54063C14.9448 7.35313 15.2354 8.35938 15.426 9.5ZM8.89475 9.5H5.24788C6.18538 7.18438 8.17288 5.40938 10.6229 4.7625C9.826 5.83125 9.20725 7.50312 8.89475 9.5ZM4.91975 10.5H8.76663C8.701 11.1438 8.66663 11.8125 8.66663 12.5C8.66663 13.1875 8.701 13.8562 8.76663 14.5H4.91975C4.75413 13.8594 4.66663 13.1906 4.66663 12.5C4.66663 11.8094 4.75413 11.1406 4.91975 10.5ZM10.751 18.4563C10.3885 17.6438 10.0979 16.6375 9.90725 15.5H15.426C15.2354 16.6375 14.9416 17.6438 14.5823 18.4563C14.2541 19.1938 13.8885 19.7281 13.5354 20.0656C13.1854 20.4 12.8948 20.5 12.6666 20.5C12.4385 20.5 12.1479 20.4 11.7979 20.0688C11.4448 19.7313 11.0791 19.1969 10.751 18.4594V18.4563ZM8.89475 15.5C9.20725 17.4969 9.826 19.1687 10.6229 20.2375C8.17288 19.5906 6.18538 17.8156 5.24788 15.5H8.89475ZM20.0854 15.5C19.1479 17.8156 17.1604 19.5906 14.7135 20.2375C15.5104 19.1687 16.126 17.4969 16.4416 15.5H20.0885H20.0854Z" fill="#424242"/>
</svg>
