<svg width="25" height="25" viewBox="0 0 25 25" fill="none" xmlns="http://www.w3.org/2000/svg">
<path d="M5.82087 13.8877L11.4677 19.1595C11.7021 19.3783 12.0115 19.5002 12.3334 19.5002C12.6552 19.5002 12.9646 19.3783 13.199 19.1595L18.8459 13.8877C19.7959 13.0033 20.3334 11.7627 20.3334 10.4658V10.2845C20.3334 8.10017 18.7552 6.23767 16.6021 5.87829C15.1771 5.64079 13.7271 6.10642 12.7084 7.12517L12.3334 7.50017L11.9584 7.12517C10.9396 6.10642 9.48962 5.64079 8.06462 5.87829C5.9115 6.23767 4.33337 8.10017 4.33337 10.2845V10.4658C4.33337 11.7627 4.87087 13.0033 5.82087 13.8877Z" fill="#424242"/>
</svg>
