<svg width="24" height="25" viewBox="0 0 24 25" fill="none" xmlns="http://www.w3.org/2000/svg">
<path d="M12.6812 4.76865C12.2968 4.4124 11.7031 4.4124 11.3218 4.76865L4.32184 11.2687C4.02184 11.5499 3.92184 11.9843 4.07184 12.3655C4.22184 12.7468 4.58747 12.9999 4.99997 12.9999H5.49997V18.4999C5.49997 19.603 6.39684 20.4999 7.49997 20.4999H16.5C17.6031 20.4999 18.5 19.603 18.5 18.4999V12.9999H19C19.4125 12.9999 19.7812 12.7468 19.9312 12.3655C20.0812 11.9843 19.9812 11.5468 19.6812 11.2687L12.6812 4.76865ZM11.5 14.4999H12.5C13.3281 14.4999 14 15.1718 14 15.9999V18.9999H9.99997V15.9999C9.99997 15.1718 10.6718 14.4999 11.5 14.4999Z" fill="#1565C0"/>
</svg>
