<svg width="24" height="25" viewBox="0 0 24 25" fill="none" xmlns="http://www.w3.org/2000/svg">
<path d="M12 12.25C12.4925 12.25 12.9801 12.153 13.4351 11.9645C13.89 11.7761 14.3034 11.4999 14.6517 11.1517C14.9999 10.8034 15.2761 10.39 15.4645 9.93506C15.653 9.48009 15.75 8.99246 15.75 8.5C15.75 8.00754 15.653 7.51991 15.4645 7.06494C15.2761 6.60997 14.9999 6.19657 14.6517 5.84835C14.3034 5.50013 13.89 5.22391 13.4351 5.03545C12.9801 4.847 12.4925 4.75 12 4.75C11.5075 4.75 11.0199 4.847 10.5649 5.03545C10.11 5.22391 9.69657 5.50013 9.34835 5.84835C9.00013 6.19657 8.72391 6.60997 8.53545 7.06494C8.347 7.51991 8.25 8.00754 8.25 8.5C8.25 8.99246 8.347 9.48009 8.53545 9.93506C8.72391 10.39 9.00013 10.8034 9.34835 11.1517C9.69657 11.4999 10.11 11.7761 10.5649 11.9645C11.0199 12.153 11.5075 12.25 12 12.25ZM11.0719 14C7.99375 14 5.5 16.4937 5.5 19.5719C5.5 20.0844 5.91563 20.5 6.42813 20.5H17.5719C18.0844 20.5 18.5 20.0844 18.5 19.5719C18.5 16.4937 16.0063 14 12.9281 14H11.0719Z" fill="#424242"/>
</svg>
